<?xml version="1.0" encoding="UTF-8" standalone="no"?>
<svg
   xmlns:dc="http://purl.org/dc/elements/1.1/"
   xmlns:cc="http://creativecommons.org/ns#"
   xmlns:rdf="http://www.w3.org/1999/02/22-rdf-syntax-ns#"
   xmlns:svg="http://www.w3.org/2000/svg"
   xmlns="http://www.w3.org/2000/svg"
   xmlns:sodipodi="http://sodipodi.sourceforge.net/DTD/sodipodi-0.dtd"
   xmlns:inkscape="http://www.inkscape.org/namespaces/inkscape"
   sodipodi:docname="campfire.svg"
   inkscape:version="0.92.5 (2060ec1f9f, 2020-04-08)"
   id="svg976"
   version="1.1"
   viewBox="0 0 12.7 12.7"
   height="48"
   width="48">
  <defs
     id="defs970" />
  <sodipodi:namedview
     inkscape:window-maximized="0"
     inkscape:window-y="27"
     inkscape:window-x="0"
     inkscape:window-height="956"
     inkscape:window-width="1627"
     units="px"
     showgrid="false"
     inkscape:document-rotation="0"
     inkscape:current-layer="layer1"
     inkscape:document-units="mm"
     inkscape:cy="21.880722"
     inkscape:cx="11.610797"
     inkscape:zoom="12.241393"
     inkscape:pageshadow="2"
     inkscape:pageopacity="0.0"
     borderopacity="1.0"
     bordercolor="#666666"
     pagecolor="#ffffff"
     id="base" />
  <metadata
     id="metadata973">
    <rdf:RDF>
      <cc:Work
         rdf:about="">
        <dc:format>image/svg+xml</dc:format>
        <dc:type
           rdf:resource="http://purl.org/dc/dcmitype/StillImage" />
        <dc:title />
      </cc:Work>
    </rdf:RDF>
  </metadata>
  <g
     id="layer1"
     inkscape:groupmode="layer"
     inkscape:label="Layer 1">
    <path
       style="stroke-width:0.0635565;fill:#803300"
       d="M 6.9036459,9.1418917 A 0.43872269,0.41770692 0 0 0 6.4613266,8.7686646 0.44422536,0.422946 0 0 0 6.0273526,9.0889979 v 0 L 5.5933785,11.095444 a 0.85248934,0.81165324 0 0 0 -0.02218,0.178895 c 0,0.452461 0.39773,0.766892 0.8901242,0.766892 0.4923936,0 0.8903616,-0.314431 0.8903616,-0.766892 a 0.86222577,0.82092327 0 0 0 -0.030762,-0.214538 z"
       fill="#3f3d56"
       id="path891" />
    <path
       style="stroke-width:0.0635565;fill:#803300"
       d="M 10.186345,10.039322 A 0.99619884,0.94847874 0 0 0 10.044467,9.940572 L 8.386548,8.8374537 C 8.2251197,8.7409662 8.0527224,8.7436911 7.9275369,8.8601707 a 0.32261703,0.30716297 0 0 0 -0.047692,0.3904839 l 1.2518459,1.5664714 a 0.87203132,0.83025912 0 0 0 0.09538,0.106476 c 0.2169869,0.230883 0.6981719,0.243596 0.9626112,0 0.260862,-0.247687 0.257765,-0.689023 -0.0033,-0.884264 z"
       fill="#3f3d56"
       id="path893" />
    <path
       style="stroke-width:0.0635565;fill:#803300"
       d="M 11.432233,8.4051974 H 9.7530856 A 0.20420623,0.19442431 0 0 0 9.5413447,8.590449 0.2219785,0.21134525 0 0 0 9.7063506,8.7984034 l 1.5840054,0.4665393 c 0.230102,0.05107 0.540084,-0.1441647 0.540084,-0.3879875 0,-0.3101163 -0.181222,-0.4717578 -0.398207,-0.4717578 z"
       fill="#3f3d56"
       id="path895" />
    <path
       style="stroke-width:0.0635565;fill:#803300"
       d="M 3.4423461,8.5895398 A 0.20848955,0.19850245 0 0 0 3.2170135,8.4042872 H 1.5378659 c -0.2115034,0 -0.3898609,0.2174887 -0.3898609,0.4613162 0,0.2438265 0.3009201,0.4504165 0.5317368,0.3993365 L 3.2875915,8.7984034 A 0.20172521,0.19206213 0 0 0 3.4423461,8.5895398 Z"
       fill="#3f3d56"
       id="path897" />
    <path
       style="stroke-width:0.0635565;fill:#803300"
       d="m 4.5947621,8.8392703 -1.6584016,1.098346 a 0.77115114,0.73421132 0 0 0 -0.1430676,0.09876 0.6278318,0.59775729 0 0 0 -0.032145,0.844803 q 0.015488,0.01584 0.032145,0.0306 a 0.70079482,0.66722522 0 0 0 0.9623728,0 0.73330664,0.69817965 0 0 0 0.095379,-0.106246 L 5.1038457,9.2479068 A 0.31444511,0.2993825 0 0 0 5.0561537,8.860602 0.35767046,0.34053726 0 0 0 4.5947589,8.839275 Z"
       fill="#3f3d56"
       id="path899" />
    <path
       style="stroke-width:0.0635565"
       d="m 7.1743826,6.6927752 a 0.17812851,0.16959577 0 0 0 0.030762,-0.091173 c 0,-0.1922876 -0.3979687,-0.3259184 -0.8903623,-0.3259184 -0.4923928,0 -0.8901234,0.1336308 -0.8901234,0.3259184 a 0.17047962,0.16231327 0 0 0 0.022172,0.076034 l 0.4339733,0.852714 v 0 c 0.049718,0.080452 0.2290217,0.1367013 0.4339733,0.1361386 0.2310563,0 0.423006,-0.06956 0.4423208,-0.1586186 z"
       fill="#3f3d56"
       id="path901" />
    <path
       style="stroke-width:0.0635565;fill:#803300"
       d="m 10.043136,6.7506656 c -0.2644394,-0.1035254 -0.7456274,-0.098122 -0.9626114,0 a 0.78073128,0.74333255 0 0 0 -0.09538,0.045253 l -1.2518448,0.665727 c -0.085121,0.052727 -0.065058,0.1225322 0.047691,0.1659497 a 0.74901932,0.71313966 0 0 0 0.4590112,0.00965 L 9.8979223,7.1684424 a 1.4135799,1.3458663 0 0 0 0.1418797,-0.041969 c 0.261096,-0.082975 0.264196,-0.2705377 0.0033,-0.3757997 z"
       fill="#3f3d56"
       id="path903" />
    <path
       style="stroke-width:0.0635565;fill:#803300"
       d="m 11.68389,7.6204537 c 0,-0.1036207 -0.30998,-0.1865969 -0.540081,-0.1648882 L 9.5598036,7.6538361 c -0.094659,0.012634 -0.165006,0.041968 -0.165006,0.088383 0,0.046405 0.1032457,0.078729 0.211741,0.078729 h 1.6791444 c 0.216988,0 0.398207,-0.068694 0.398207,-0.2004899 z"
       fill="#3f3d56"
       id="path905" />
    <path
       style="stroke-width:0.0635565;fill:#803300"
       d="M 3.1410454,7.6538361 1.5331957,7.4555655 c -0.2308168,-0.021698 -0.5317369,0.066085 -0.5317369,0.1697124 0,0.1036235 0.1783584,0.1960522 0.3898608,0.1960522 h 1.6791455 c 0.116839,0 0.2253326,-0.030486 0.2253326,-0.078729 0,-0.048243 -0.050073,-0.07612 -0.1547523,-0.088765 z"
       fill="#3f3d56"
       id="path907" />
    <path
       style="stroke-width:0.0635565;fill-opacity:1;fill:#803300"
       d="M 4.9096083,7.6274011 C 5.0269233,7.5833095 5.0407542,7.5166407 4.9573003,7.4628015 L 3.7044997,6.8008364 a 0.65769387,0.6261889 0 0 0 -0.095379,-0.045158 1.4645622,1.3944065 0 0 0 -0.962373,0 q -0.01665,0.00628 -0.032152,0.013006 C 2.37845,6.8714164 2.3928427,7.032161 2.6467478,7.1277126 a 1.099816,1.0471324 0 0 0 0.1430685,0.041978 l 1.6584,0.4667792 a 0.75779769,0.72149753 0 0 0 0.4613956,-0.00904 z"
       fill="#3f3d56"
       id="path909" />
    <path
       style="stroke-width:0.0635565"
       d="m 9.7299136,6.554742 c 0,2.4659029 -1.4434624,2.5115131 -3.2240671,2.5115131 -1.7806039,0 -4.7039938,-0.4878273 -3.2240689,-2.5115131 1.5608982,-2.1344167 4.2386704,-6.20284313 3.2240659,-6.41831657 0,0 3.2240701,3.95241087 3.2240701,6.41831657 z"
       fill="#f9a825"
       id="path911" />
    <path
       style="stroke-width:0.0635565"
       d="m 7.6413185,8.0721136 c 0,0.976086 -0.5713701,0.9941415 -1.2761933,0.9941415 -0.7048239,0 -1.8619986,-0.1930997 -1.2761924,-0.9941415 C 5.70679,7.227242 6.7667416,5.6168228 6.3651274,5.531531 c -2.2e-6,0 1.2761911,1.5644948 1.2761911,2.5405826 z"
       fill="#ff6584"
       opacity="0.5"
       id="path913" />
  </g>
</svg>
