<?xml version="1.0" encoding="UTF-8" standalone="no"?>
<svg
   xmlns:dc="http://purl.org/dc/elements/1.1/"
   xmlns:cc="http://creativecommons.org/ns#"
   xmlns:rdf="http://www.w3.org/1999/02/22-rdf-syntax-ns#"
   xmlns:svg="http://www.w3.org/2000/svg"
   xmlns="http://www.w3.org/2000/svg"
   xmlns:sodipodi="http://sodipodi.sourceforge.net/DTD/sodipodi-0.dtd"
   xmlns:inkscape="http://www.inkscape.org/namespaces/inkscape"
   inkscape:version="1.0 (4035a4f, 2020-05-01)"
   sodipodi:docname="header_icon.svg"
   version="1.1"
   viewBox="0 0 1108 731.18"
   height="731.18"
   width="1108"
   data-name="Layer 1"
   id="a75d69e6-d07c-4db3-9c83-72b2470e5561">
  <metadata
     id="metadata982">
    <rdf:RDF>
      <cc:Work
         rdf:about="">
        <dc:format>image/svg+xml</dc:format>
        <dc:type
           rdf:resource="http://purl.org/dc/dcmitype/StillImage" />
      </cc:Work>
    </rdf:RDF>
  </metadata>
  <defs
     id="defs980" />
  <sodipodi:namedview
     inkscape:current-layer="a75d69e6-d07c-4db3-9c83-72b2470e5561"
     inkscape:window-maximized="0"
     inkscape:window-y="23"
     inkscape:window-x="0"
     inkscape:cy="365.59"
     inkscape:cx="554"
     inkscape:zoom="0.64259928"
     showgrid="false"
     id="namedview978"
     inkscape:window-height="720"
     inkscape:window-width="1280"
     inkscape:pageshadow="2"
     inkscape:pageopacity="0"
     guidetolerance="10"
     gridtolerance="10"
     objecttolerance="10"
     borderopacity="1"
     bordercolor="#666666"
     pagecolor="#ffffff" />
  <title
     id="title833">react</title>
  <path
     id="path889"
     fill="#53c1de"
     transform="translate(-46 -84.41)"
     d="M791.57,415.56q-9.92-3.4-20-6.3,1.66-6.79,3.09-13.65c15.14-73.51,5.24-132.73-28.57-152.22-32.42-18.7-85.44.8-139,47.39q-7.92,6.92-15.47,14.2-5.07-4.85-10.3-9.51C525.21,245.64,469,224.65,435.18,244.2c-32.39,18.75-42,74.42-28.35,144.09q2,10.35,4.59,20.58c-7.95,2.26-15.64,4.67-23,7.24C322.63,439,280.61,475,280.61,512.29c0,38.51,45.11,77.14,113.64,100.56q8.34,2.83,16.8,5.26-2.74,11-4.88,22.18c-13,68.46-2.84,122.82,29.46,141.45C469,801,525,781.2,579.52,733.54c4.31-3.77,8.63-7.77,13-11.95q8.18,7.89,16.79,15.32c52.82,45.45,105,63.81,137.26,45.12,33.33-19.29,44.16-77.69,30.1-148.73q-1.6-8.14-3.73-16.61,5.91-1.74,11.56-3.61c71.24-23.6,117.6-61.76,117.6-100.79,0-37.43-43.38-73.62-110.5-96.73Z" />
  <path
     id="path891"
     fill="#fff"
     transform="translate(-46 -84.41)"
     d="M776.12,587.88c-3.4,1.13-6.88,2.21-10.44,3.27a621.6,621.6,0,0,0-31.47-78.73,623.06,623.06,0,0,0,30.25-77.58c6.35,1.84,12.53,3.78,18.47,5.83,57.51,19.79,92.59,49.06,92.59,71.62,0,24-37.89,55.21-99.4,75.59ZM750.6,638.46c6.22,31.41,7.1,59.81,3,82-3.7,19.95-11.14,33.25-20.34,38.58-19.59,11.33-61.47-3.4-106.64-42.27q-7.77-6.69-15.63-14.25a624.23,624.23,0,0,0,52.09-66.14,620.2,620.2,0,0,0,84.17-13q1.9,7.68,3.37,15ZM492.48,757.1c-19.14,6.76-34.38,6.95-43.59,1.64-19.6-11.31-27.75-55-16.63-113.5q2-10.37,4.53-20.63a625.79,625.79,0,0,0,83.75,12.13,645.09,645.09,0,0,0,53.35,65.9q-5.79,5.61-11.84,10.91c-24.11,21.08-48.28,36-69.57,43.55ZM402.84,587.73c-30.31-10.36-55.33-23.82-72.49-38.5-15.41-13.2-23.19-26.31-23.19-36.94,0-22.63,33.74-51.5,90-71.11q10.6-3.69,21.39-6.73a637.08,637.08,0,0,0,30.29,78.48,646.29,646.29,0,0,0-30.66,79.6Q410.44,590.32,402.84,587.73Zm30.05-204.54c-11.68-59.69-3.93-104.72,15.59-116,20.79-12,66.76,5.12,115.22,48.15,3.1,2.75,6.21,5.63,9.32,8.6a635.89,635.89,0,0,0-52.93,65.52,648.42,648.42,0,0,0-82.93,12.89q-2.39-9.52-4.27-19.15ZM701,449.38q-9.11-15.74-18.89-31.08c19.83,2.51,38.82,5.83,56.66,9.91a565.54,565.54,0,0,1-19.89,53.51q-8.61-16.35-17.88-32.34ZM591.64,342.91a569.3,569.3,0,0,1,36.57,44.14q-36.71-1.73-73.45,0c12.07-15.92,24.44-30.72,36.88-44.13Zm-110,106.65q-9.15,15.87-17.55,32.14c-7.73-18.33-14.34-36.36-19.74-53.77,17.73-4,36.64-7.21,56.34-9.68Q490.77,433.69,481.62,449.56Zm19.61,158.65A564.64,564.64,0,0,1,444,599c5.49-17.71,12.25-36.13,20.15-54.86q8.43,16.29,17.61,32.16Q491.1,592.49,501.23,608.21Zm91.14,75.33C579.79,670,567.24,655,555,638.79q17.85.71,36.36.71,19,0,37.51-.84A563.94,563.94,0,0,1,592.37,683.54ZM719.08,543.19A562.82,562.82,0,0,1,740,597.85a561.35,561.35,0,0,1-58,9.89q9.85-15.63,19.08-31.63,9.38-16.26,18-32.92Zm-41,19.66q-14.12,24.52-29.81,48.1c-18.44,1.32-37.49,2-56.91,2s-38.15-.6-56.27-1.78Q519,587.67,504.7,563t-26.51-50.08q12.27-25.53,26.43-50.1h0q14.14-24.56,30.13-48c18.49-1.4,37.43-2.13,56.59-2.13s38.22.74,56.69,2.14q15.81,23.37,30,47.81t26.79,49.87q-12.45,25.62-26.71,50.3Zm54.77-296.46c20.81,12,28.9,60.4,15.83,123.87q-1.29,6.19-2.8,12.35a635.74,635.74,0,0,0-83.09-13.13,625.16,625.16,0,0,0-52.53-65.56q7-6.74,14.29-13.11c45.88-39.93,88.76-55.69,108.3-44.42Z" />
  <path
     id="path893"
     fill="#53c1de"
     transform="translate(-46 -84.41)"
     d="M591.34,456.79a55.5,55.5,0,1,1-55.5,55.5,55.49,55.49,0,0,1,55.5-55.5" />
  <path
     id="path895"
     fill="#3f3d56"
     transform="translate(-46 -84.41)"
     d="M605.26,104.81a16.6,16.6,0,1,1-16.6-16.6A16.52,16.52,0,0,1,605.26,104.81Z" />
  <path
     id="path897"
     fill="#3f3d56"
     transform="translate(-46 -84.41)"
     d="M575.4,109a16.62,16.62,0,0,1,12.49-24.54,16.6,16.6,0,1,0,1.41,33.07A16.6,16.6,0,0,1,575.4,109Z" />
  <rect
     id="rect899"
     fill="#3f3d56"
     height="69.37"
     width="44.47"
     y="43.52"
     x="521.91" />
  <rect
     id="rect901"
     opacity="0.1"
     height="69.37"
     width="44.47"
     y="43.52"
     x="521.91" />
  <path
     id="path903"
     fill="#a0616a"
     transform="translate(-46 -84.41)"
     d="M497.66,379.61s-4.75,13.05-16,14.83-17.79,4.74-17.79,4.74l26.68,17.19,14.23-1.78s1.78-18.38,7.71-22.53S497.66,379.61,497.66,379.61Z" />
  <path
     id="path905"
     fill="#a0616a"
     transform="translate(-46 -84.41)"
     d="M690.34,379.61s4.75,13.05,16,14.83,17.79,4.74,17.79,4.74l-26.68,17.19-14.23-1.78s-1.78-18.38-7.71-22.53S690.34,379.61,690.34,379.61Z" />
  <path
     id="path907"
     fill="#3f3d56"
     transform="translate(-46 -84.41)"
     d="M560.5,264.59s-7.11,3.56-9.48,10.68c0,0-13,4.15-20.16,15.41,0,0-8.9,9.49-10.08,14.23S506,338.11,506,338.11s-13.64,44.47-20.75,49.21c0,0,22.53-4.74,26.68,17.79,0,0,5.33,0,11.26-20.75s20.16-46.25,20.16-46.25,4.74-17.78,8.89-20.75,10.67-16.6,16.6-13,45.06-.6,45.06-.6S637,314.4,637.58,321.51s4.74,7.71,5.33,13.64,22.53,52.76,22.53,52.76,4.15,13,5.34,16c0,0,13-31.42,30.24-13.63,0,0-.6-11.86-5.93-19s-28.46-62.84-28.46-62.84-2.37-8.3-4.74-10.67-20.76-21.35-27.28-21.35c0,0-3.55-8.89-7.7-10.08Z" />
  <path
     id="path909"
     fill="#3f3d56"
     transform="translate(-46 -84.41)"
     d="M507.14,410.44a28.89,28.89,0,0,1-28.22-3.79,56.37,56.37,0,0,0-12.59-7.3c-6.29-2.54-13.81-4.42-16.1-.17-4.15,7.71,50.39,26.68,50.39,26.68S507.74,421.71,507.14,410.44Z" />
  <path
     id="path911"
     fill="#3f3d56"
     transform="translate(-46 -84.41)"
     d="M680.86,410.44a28.89,28.89,0,0,0,28.22-3.79,56.37,56.37,0,0,1,12.59-7.3c6.29-2.54,13.81-4.42,16.1-.17,4.15,7.71-50.39,26.68-50.39,26.68S680.26,421.71,680.86,410.44Z" />
  <path
     id="path913"
     fill="#a0616a"
     transform="translate(-46 -84.41)"
     d="M579.88,167.08c-.22,2.06-.9,4.29-2.66,5.38-1.44.9-3.26.83-4.92,1.17a11.46,11.46,0,0,0-7.82,6.77,17.51,17.51,0,0,0-.75,10.55,39.22,39.22,0,0,0,1.52,5.06c1.74,4.92,3.84,9.8,7.09,13.89a59,59,0,0,0,9.3,8.77c2.11,1.72,4.29,3.47,6.89,4.28a21.75,21.75,0,0,0,5.4.72c2.25.1,4.65.17,6.6-.95,3-1.73,3.89-5.55,5.52-8.62,1.38-2.6,3.44-4.81,4.73-7.46a29.49,29.49,0,0,0,2-6.52l2.77-12.3c1-4.47,1.92-9.51-.59-13.34a2.28,2.28,0,0,0-.74-.77,2.79,2.79,0,0,0-1.52-.15,16.44,16.44,0,0,1-9.15-2.09,3.93,3.93,0,0,1-1.15-.9,4.72,4.72,0,0,1-.7-2.12,22.2,22.2,0,0,0-1.28-4.45,3,3,0,0,0-.87-1.34,3.15,3.15,0,0,0-1.41-.47,114.47,114.47,0,0,0-12.93-1.35c-1.42-.07-3.56-.64-4.54.62S580,165.58,579.88,167.08Z" />
  <path
     id="path915"
     opacity="0.1"
     transform="translate(-46 -84.41)"
     d="M579.88,167.08c-.22,2.06-.9,4.29-2.66,5.38-1.44.9-3.26.83-4.92,1.17a11.46,11.46,0,0,0-7.82,6.77,17.51,17.51,0,0,0-.75,10.55,39.22,39.22,0,0,0,1.52,5.06c1.74,4.92,3.84,9.8,7.09,13.89a59,59,0,0,0,9.3,8.77c2.11,1.72,4.29,3.47,6.89,4.28a21.75,21.75,0,0,0,5.4.72c2.25.1,4.65.17,6.6-.95,3-1.73,3.89-5.55,5.52-8.62,1.38-2.6,3.44-4.81,4.73-7.46a29.49,29.49,0,0,0,2-6.52l2.77-12.3c1-4.47,1.92-9.51-.59-13.34a2.28,2.28,0,0,0-.74-.77,2.79,2.79,0,0,0-1.52-.15,16.44,16.44,0,0,1-9.15-2.09,3.93,3.93,0,0,1-1.15-.9,4.72,4.72,0,0,1-.7-2.12,22.2,22.2,0,0,0-1.28-4.45,3,3,0,0,0-.87-1.34,3.15,3.15,0,0,0-1.41-.47,114.47,114.47,0,0,0-12.93-1.35c-1.42-.07-3.56-.64-4.54.62S580,165.58,579.88,167.08Z" />
  <path
     id="path917"
     fill="#9f880b"
     transform="translate(-46 -84.41)"
     d="M571.85,174.15a26.93,26.93,0,0,0-7.13-1.12c-5.72-.14-11.84,1.83-15.14,6.5A15.34,15.34,0,0,0,547.29,191a23.57,23.57,0,0,0,5.2,10.66,32,32,0,0,1,4,5.24c1.58,3,1.63,6.59,2.06,10,1,8.12,4.46,15.75,5.83,23.82s.19,17.42-6.18,22.55c-1.07.86-2.37,1.77-2.46,3.14-.14,2.19,2.71,3.12,4.9,3.33,6.55.62,13.27,1.23,19.63-.46,2.63-.7,5.17-1.79,7.85-2.29,6.8-1.27,13.64,1.34,20.45,2.59a90.61,90.61,0,0,0,14.91,1.21,7.94,7.94,0,0,0,3.43-.45,2.75,2.75,0,0,0,1.74-2.74,4.76,4.76,0,0,0-1.18-2c-3.44-4.25-4.49-9.9-5.43-15.29l-3.15-18.11c-1.69-9.68-3.26-20.2,1.32-28.89,3.29-6.25,9.36-10.65,12.83-16.8a9.84,9.84,0,0,0,1.55-6.28c-.52-3.09-3.31-5.3-6.17-6.59A23.21,23.21,0,0,0,611,173c.1,4.33-1,8.71-1.71,13l-1.21,7a88.83,88.83,0,0,1-2.71,12.2,12.85,12.85,0,0,1-2.17,4.42,11.43,11.43,0,0,1-3.83,2.79,22.83,22.83,0,0,1-10.14,2.32,13.54,13.54,0,0,1-4.48-.69,19,19,0,0,1-6.17-4.34,10.11,10.11,0,0,1-1.63-1.77,9.93,9.93,0,0,1-1.11-2.67,55.42,55.42,0,0,1-1.91-7.48c-.3-1.94-.4-3.91-.54-5.87C573,186.12,573,179.72,571.85,174.15Z" />
  <path
     id="path919"
     fill="#a0616a"
     transform="translate(-46 -84.41)"
     d="M565.84,288.9s-2.37,31.43,12.45,36.76,1.78-26.09,1.78-26.09l-4.75-9.48Z" />
  <path
     id="path921"
     fill="#a0616a"
     transform="translate(-46 -84.41)"
     d="M616.23,288.9s2.37,31.43-12.45,36.76S602,299.57,602,299.57l4.75-9.48Z" />
  <path
     id="path923"
     opacity="0.1"
     transform="translate(-46 -84.41)"
     d="M552.79,184l-4.74,7.71s4.15,26.68,4.74,31.42a62.2,62.2,0,0,0,2.38,10.08s.59,14.23.59,19.57,3,14.23,3,14.23a64.82,64.82,0,0,0,3,14.82c2.37,6.52,4.74,14.23,4.74,14.23s3-8.3,14.82,4.15a7.18,7.18,0,0,0,0-10.08s-3.55-16-3.55-24.31-6.53-48-6.53-48S567,172.7,552.79,184Z" />
  <path
     id="path925"
     fill="#9f880b"
     transform="translate(-46 -84.41)"
     d="M551.61,183.37l-4.74,7.71s4.15,26.68,4.74,31.42A61.84,61.84,0,0,0,554,232.58s.59,14.23.59,19.56,3,14.23,3,14.23a64.53,64.53,0,0,0,3,14.82c2.37,6.53,4.75,14.23,4.75,14.23s3-8.3,14.82,4.15a7.18,7.18,0,0,0,0-10.07s-3.56-16-3.56-24.31-6.52-48-6.52-48S565.84,172.1,551.61,183.37Z" />
  <path
     id="path927"
     opacity="0.1"
     transform="translate(-46 -84.41)"
     d="M629.87,179.22l3,3.53s3.49,20.18-4.22,45.68l-2.37,23.12s-4.15,19.57-4.74,24.31-.59,5.33-1.78,7.11a2.29,2.29,0,0,0,0,3l-3.56,13s-5.33-6.52-16,1.78c0,0-3-4.74-.6-8.89s2.37-5.93,1.78-7.12,2.37-7.11,2.37-8.3S607.93,248,607.93,248s1.78-26.68,3.56-35.57c1.09-5.47,1.07-17.66.88-26.24-.19-8.94,10.63-13.78,17-7.5C629.52,178.85,629.7,179,629.87,179.22Z" />
  <path
     id="path929"
     fill="#9f880b"
     transform="translate(-46 -84.41)"
     d="M631.65,178l3,3.53s3.49,20.19-4.22,45.68l-2.37,23.12s-4.15,19.57-4.74,24.31-.6,5.34-1.78,7.12a2.28,2.28,0,0,0,0,3L618,297.8s-5.33-6.53-16,1.77c0,0-3-4.74-.59-8.89s2.37-5.93,1.78-7.11,2.37-7.12,2.37-8.3,4.15-28.46,4.15-28.46,1.78-26.68,3.56-35.58.59-35.57.59-35.57S623.35,169.14,631.65,178Z" />
  <circle
     id="circle931"
     fill="#a0616a"
     r="23.72"
     cy="61.61"
     cx="545.92" />
  <path
     id="path933"
     opacity="0.1"
     transform="translate(-46 -84.41)"
     d="M604.29,110.41a16.6,16.6,0,0,1-31.09.44c9.26-3.73,18.72-.41,18.72-.41C596.65,108.78,600.75,108.93,604.29,110.41Z" />
  <path
     id="path935"
     fill="#3f3d56"
     transform="translate(-46 -84.41)"
     d="M591.92,111.63s-45.65-16-34.38,61.66c0,0,10.08,6.52,17.78,2.37,0,0-5.33-53.95,15.42-51.58s17.19,50.4,17.19,50.4,11.86,3.55,15.42-3S622.16,101,591.92,111.63Z" />
  <path
     id="path937"
     opacity="0.1"
     transform="translate(-46 -84.41)"
     d="M590.74,120.52c-14.24-1.62-16.2,23.27-16,39.05.17-15.69,2.81-37,16-35.49,14.81,1.69,17.24,26.66,17.41,40.8C608.32,151.9,606.9,122.37,590.74,120.52Z" />
  <path
     id="path939"
     opacity="0.1"
     transform="translate(-46 -84.41)"
     d="M557.54,169.73a159.38,159.38,0,0,1-1.77-20.53,152.12,152.12,0,0,0,1.77,24.09s10.08,6.52,17.78,2.37c0,0-.12-1.28-.26-3.43C567.39,176.1,557.54,169.73,557.54,169.73Z" />
  <path
     id="path941"
     opacity="0.1"
     transform="translate(-46 -84.41)"
     d="M623.35,168c-3.32,6.08-13.83,3.41-15.25,3-.07,2.2-.17,3.52-.17,3.52s11.86,3.55,15.42-3c.73-1.34,1.11-5.13,1-10.2C624.25,164.57,623.9,167,623.35,168Z" />
  <path
     id="path975"
     opacity="0.03"
     transform="translate(-46 -84.41)"
     d="M277.89,338a27.36,27.36,0,0,1,15.8,1.72,23.28,23.28,0,0,0,19,0,26.61,26.61,0,0,1,22.32.43,13.82,13.82,0,0,0,6.42,1.61c9.05,0,16.57-9.11,18.14-21.13a17.44,17.44,0,0,1-4.52-4.88c-5.31-8.54-13.52-14-22.75-14s-17.33,5.42-22.64,13.88a17.44,17.44,0,0,1-15,8.25h-.23C287.17,323.81,280.93,329.59,277.89,338Z" />
</svg>
