<svg xmlns="http://www.w3.org/2000/svg" viewBox="0 0 12.7 12.7" height="48" width="48"><path d="M6.904 9.142a.439.418 0 00-.443-.373.444.423 0 00-.434.32l-.434 2.006a.852.812 0 00-.022.18c0 .452.398.766.89.766.493 0 .89-.314.89-.767a.862.82 0 00-.03-.214zm3.282.898a.996.948 0 00-.142-.1L8.387 8.838c-.162-.096-.334-.093-.46.023a.323.307 0 00-.047.39l1.252 1.567a.872.83 0 00.095.107c.217.23.698.243.963 0 .26-.248.257-.69-.004-.885zm1.246-1.635H9.753a.204.194 0 00-.212.185.222.211 0 00.165.208l1.584.467c.23.051.54-.144.54-.388 0-.31-.18-.472-.398-.472zm-7.99.185a.208.199 0 00-.225-.186h-1.68c-.21 0-.389.218-.389.462 0 .243.3.45.532.399l1.608-.467a.202.192 0 00.154-.208zm1.153.25L2.936 9.937a.771.734 0 00-.143.098.628.598 0 00-.032.845l.032.03a.7.667 0 00.963 0 .733.698 0 00.095-.105l1.253-1.558a.314.3 0 00-.048-.387.358.34 0 00-.461-.022z" fill="#803300"/><path d="M7.174 6.693a.178.17 0 00.031-.091c0-.193-.398-.326-.89-.326-.493 0-.89.133-.89.326a.17.162 0 00.022.076l.434.852c.05.08.229.137.434.136.23 0 .423-.07.442-.158z" fill="#3f3d56"/><path d="M10.043 6.75c-.264-.103-.745-.097-.962 0a.78.743 0 00-.096.046l-1.252.666c-.085.052-.065.122.048.166a.749.713 0 00.459.01l1.658-.47a1.414 1.346 0 00.142-.042c.26-.083.264-.27.003-.375zm1.641.87c0-.103-.31-.186-.54-.164l-1.584.198c-.095.012-.165.042-.165.088 0 .047.103.079.212.079h1.679c.217 0 .398-.069.398-.2zm-8.543.034l-1.608-.198c-.23-.022-.532.066-.532.17 0 .103.179.195.39.195h1.68c.116 0 .225-.03.225-.078 0-.049-.05-.077-.155-.09zm1.769-.027c.117-.044.13-.11.047-.164L3.704 6.8a.658.626 0 00-.095-.045 1.465 1.394 0 00-.962 0l-.032.013c-.237.102-.222.263.032.359a1.1 1.047 0 00.143.042l1.658.466a.758.721 0 00.462-.009z" fill="#803300"/><path d="M9.73 6.555c0 2.466-1.444 2.511-3.224 2.511-1.78 0-4.704-.488-3.224-2.511C4.842 4.42 7.52.352 6.506.136c0 0 3.224 3.953 3.224 6.419z" fill="#f9a825"/><path d="M7.641 8.072c0 .976-.571.994-1.276.994-.705 0-1.862-.193-1.276-.994.618-.845 1.678-2.455 1.276-2.54 0 0 1.276 1.564 1.276 2.54z" fill="#ff6584" opacity=".5"/></svg>