<svg width="760.67004" height="600" xmlns="http://www.w3.org/2000/svg" xmlns:svg="http://www.w3.org/2000/svg">
 <g class="layer">
  <title>Layer 1</title>
  <g id="svg_1">
   <path d="m688,475.75c-0.35,-1.08 -3.04,-0.6 -3.29,-1.57c-0.26,-0.97 2.31,-1.78 4.29,-4.5c0.36,-0.49 2.6,-3.59 1.74,-4.89c-1.63,-2.46 -12.99,3.68 -15.71,0.23c-0.6,-0.75 -0.85,-2.05 -2.63,-4.47c-0.71,-0.96 -1.16,-1.43 -1.71,-1.41c-0.77,0.02 -1.04,0.98 -2.26,2.73c-1.81,2.62 -2.47,2.29 -3.67,4.44c-0.89,1.59 -0.99,2.61 -1.63,2.67c-0.91,0.09 -1.28,-1.9 -2.39,-1.97c-1.13,-0.08 -2.27,1.88 -2.83,3.41c-1.05,2.87 -0.4,5.07 -0.25,7.26c0.15,2.38 -0.21,5.87 -2.8,10.34l-24.39,38.86c5.24,-7.92 20.11,-29.53 26.1,-37.45c1.73,-2.29 3.58,-4.58 6.45,-5.02c2.75,-0.41 6.1,0.95 10.78,0.87c0.54,-0.01 2.06,-0.05 2.43,-0.86c0.31,-0.67 -0.45,-1.24 -0.17,-1.87c0.37,-0.84 2.03,-0.48 4.3,-1.04c1.61,-0.39 2.69,-1.04 3.63,-1.6c0.28,-0.17 4.48,-2.71 4.01,-4.16l0,0z" fill="#f2f2f2" id="svg_2"/>
   <path d="m624.12,484.83c-0.64,-0.14 -1.18,1.31 -1.73,1.16c-0.55,-0.15 -0.2,-1.65 -0.97,-3.41c-0.14,-0.31 -1.01,-2.31 -1.89,-2.26c-1.68,0.09 -1.95,7.44 -4.42,7.78c-0.55,0.07 -1.26,-0.18 -2.96,0c-0.67,0.07 -1.03,0.16 -1.18,0.43c-0.22,0.38 0.18,0.8 0.69,1.89c0.76,1.65 0.41,1.88 1.12,3.09c0.52,0.89 0.99,1.24 0.84,1.57c-0.22,0.47 -1.31,0.08 -1.66,0.6c-0.37,0.54 0.27,1.66 0.86,2.38c1.1,1.34 2.37,1.66 3.49,2.22c1.21,0.61 2.81,1.79 4.26,4.35l12.04,23.19c-2.38,-4.86 -8.69,-18.39 -10.85,-23.62c-0.63,-1.51 -1.22,-3.08 -0.6,-4.61c0.59,-1.47 2.22,-2.72 3.53,-5.04c0.16,-0.27 0.57,-1.03 0.28,-1.45c-0.23,-0.34 -0.74,-0.13 -0.97,-0.45c-0.3,-0.42 0.36,-1.14 0.74,-2.41c0.27,-0.9 0.26,-1.62 0.26,-2.25c0,-0.18 -0.04,-2.98 -0.88,-3.16l0,0z" fill="#f2f2f2" id="svg_3"/>
   <path d="m636.12,490.48l0.38,-3.49l0.23,-0.22c1.08,-1.01 1.75,-2.09 2,-3.19c0.04,-0.18 0.07,-0.36 0.1,-0.54c0.13,-0.72 0.28,-1.61 0.98,-2.54c0.38,-0.51 1.4,-1.68 2.46,-1.27c0.28,0.1 0.47,0.29 0.61,0.48c0.03,-0.03 0.07,-0.07 0.1,-0.1c0.46,-0.44 0.78,-0.61 1.08,-0.76c0.24,-0.12 0.48,-0.25 0.89,-0.58c0.19,-0.14 0.33,-0.27 0.45,-0.38c0.37,-0.33 0.85,-0.72 1.49,-0.56c0.69,0.18 0.93,0.84 1.08,1.27c0.28,0.78 0.37,1.31 0.42,1.66c0.02,0.13 0.05,0.28 0.07,0.32c0.15,0.38 2.03,0.48 2.75,0.52c1.59,0.09 2.97,0.16 3.31,1.26c0.23,0.78 -0.26,1.63 -1.52,2.6c-0.4,0.3 -0.79,0.51 -1.13,0.66c0.21,0.2 0.38,0.47 0.39,0.84l0,0c0.02,0.87 -0.87,1.54 -2.66,1.99c-0.45,0.12 -1.04,0.27 -1.83,0.23c-0.36,-0.02 -0.69,-0.08 -0.96,-0.13c-0.04,0.16 -0.12,0.32 -0.25,0.48c-0.4,0.45 -1.04,0.57 -1.92,0.31c-0.96,-0.27 -1.72,-0.63 -2.39,-0.95c-0.59,-0.28 -1.09,-0.52 -1.52,-0.59c-0.78,-0.11 -1.52,0.38 -2.4,1.03l-2.21,1.65l0,0z" fill="#f2f2f2" id="svg_4"/>
   <path d="m642.42,470.59l-3.48,0.52l-0.27,-0.17c-1.25,-0.78 -2.46,-1.16 -3.59,-1.12c-0.18,0 -0.36,0.02 -0.55,0.03c-0.72,0.07 -1.63,0.14 -2.7,-0.29c-0.6,-0.24 -1.99,-0.94 -1.86,-2.06c0.03,-0.3 0.16,-0.54 0.32,-0.71c-0.04,-0.03 -0.09,-0.05 -0.13,-0.08c-0.54,-0.33 -0.78,-0.59 -1.01,-0.85c-0.18,-0.2 -0.36,-0.4 -0.78,-0.72c-0.19,-0.14 -0.35,-0.24 -0.49,-0.33c-0.41,-0.28 -0.9,-0.64 -0.92,-1.3c0.01,-0.71 0.58,-1.11 0.96,-1.37c0.68,-0.47 1.17,-0.68 1.5,-0.83c0.12,-0.05 0.25,-0.11 0.29,-0.14c0.33,-0.24 -0.05,-2.09 -0.19,-2.79c-0.32,-1.57 -0.6,-2.92 0.37,-3.52c0.7,-0.43 1.65,-0.17 2.91,0.81c0.39,0.3 0.69,0.63 0.92,0.92c0.14,-0.25 0.36,-0.48 0.72,-0.59l0,0c0.83,-0.24 1.71,0.45 2.6,2.07c0.22,0.4 0.52,0.94 0.68,1.71c0.07,0.36 0.1,0.68 0.12,0.96c0.16,0 0.34,0.03 0.52,0.13c0.54,0.26 0.82,0.86 0.79,1.77c-0.01,0.99 -0.17,1.82 -0.31,2.55c-0.12,0.64 -0.23,1.19 -0.18,1.62c0.09,0.79 0.75,1.38 1.6,2.06l2.16,1.72l0,0z" fill="#f2f2f2" id="svg_5"/>
   <path d="m642.89,460.15l0.38,-3.49l0.23,-0.22c1.07,-1.01 1.74,-2.09 2,-3.19c0.04,-0.18 0.07,-0.36 0.1,-0.54c0.12,-0.72 0.28,-1.61 0.97,-2.54c0.39,-0.51 1.41,-1.68 2.46,-1.27c0.29,0.1 0.48,0.29 0.61,0.48c0.04,-0.03 0.07,-0.06 0.11,-0.1c0.45,-0.44 0.77,-0.61 1.08,-0.76c0.23,-0.12 0.48,-0.25 0.89,-0.58c0.18,-0.14 0.33,-0.27 0.45,-0.38c0.37,-0.33 0.84,-0.72 1.49,-0.56c0.69,0.18 0.92,0.84 1.08,1.27c0.28,0.78 0.36,1.31 0.42,1.66c0.02,0.13 0.04,0.28 0.06,0.32c0.15,0.38 2.04,0.48 2.75,0.52c1.6,0.09 2.98,0.16 3.31,1.26c0.24,0.78 -0.26,1.63 -1.52,2.6c-0.39,0.3 -0.78,0.51 -1.13,0.66c0.21,0.2 0.38,0.47 0.39,0.84l0,0c0.02,0.87 -0.87,1.54 -2.66,1.99c-0.44,0.12 -1.04,0.27 -1.82,0.23c-0.37,-0.02 -0.69,-0.07 -0.97,-0.13c-0.04,0.16 -0.11,0.32 -0.25,0.48c-0.4,0.45 -1.04,0.57 -1.91,0.31c-0.96,-0.27 -1.72,-0.63 -2.4,-0.95c-0.58,-0.28 -1.09,-0.52 -1.51,-0.59c-0.79,-0.11 -1.53,0.38 -2.41,1.03l-2.2,1.65l0,0z" fill="#f2f2f2" id="svg_6"/>
   <path d="m631.62,527.08l-0.61,-0.61l0.01,-0.86l-0.01,0.86l-0.86,-0.09c0.01,-0.08 0,-0.27 -0.01,-0.56c-0.03,-1.61 -0.13,-6.5 0.55,-14.01c0.48,-5.25 1.27,-10.57 2.36,-15.83c1.1,-5.26 2.23,-9.18 3.14,-12.33c0.69,-2.38 1.38,-4.63 2.06,-6.82c1.81,-5.87 3.52,-11.41 4.58,-17.72c0.23,-1.41 0.72,-4.35 -0.28,-7.81c-0.59,-2.01 -1.59,-3.91 -2.97,-5.63l1.34,-1.08c1.53,1.9 2.64,3.99 3.29,6.23c1.11,3.84 0.58,7.04 0.32,8.57c-1.08,6.43 -2.8,12.02 -4.63,17.94c-0.67,2.19 -1.36,4.43 -2.05,6.8c-0.9,3.12 -2.03,7 -3.11,12.2c-1.08,5.2 -1.86,10.46 -2.33,15.63c-0.67,7.42 -0.57,12.24 -0.54,13.82c0.02,0.85 0.02,1.03 -0.25,1.3l0,0z" fill="#f2f2f2" id="svg_7"/>
   <path d="m635.89,447.66c-0.07,-0.01 -0.14,-0.03 -0.21,-0.05c-1.42,-0.4 -2.55,-1.55 -3.38,-3.43c-0.39,-0.89 -0.48,-1.82 -0.66,-3.67c-0.03,-0.29 -0.16,-1.74 0,-3.66c0.1,-1.25 0.24,-1.76 0.58,-2.15c0.38,-0.44 0.89,-0.69 1.43,-0.82c0.01,-0.17 0.06,-0.33 0.17,-0.48c0.45,-0.64 1.19,-0.38 1.59,-0.24c0.21,0.07 0.46,0.16 0.74,0.21c0.45,0.08 0.72,0 1.12,-0.12c0.39,-0.11 0.87,-0.25 1.54,-0.24c1.31,0.02 2.28,0.61 2.6,0.8c1.69,1.02 2.27,2.64 2.94,4.51c0.14,0.37 0.58,1.73 0.68,3.48c0.08,1.26 -0.09,1.77 -0.28,2.14c-0.38,0.76 -0.97,1.11 -2.44,1.85c-1.54,0.78 -2.31,1.16 -2.94,1.36c-1.47,0.47 -2.4,0.75 -3.48,0.51l0,0z" fill="#f2f2f2" id="svg_8"/>
  </g>
  <path d="m599,527.45c0,0.66 0.53,1.19 1.19,1.19l159.29,0c0.66,0 1.19,-0.53 1.19,-1.19c0,-0.66 -0.53,-1.19 -1.19,-1.19l-159.29,0c-0.66,0 -1.19,0.53 -1.19,1.19z" fill="#3f3d56" id="svg_17"/>
  <path d="m0,527.45c0,0.66 0.53,1.19 1.19,1.19l159.29,0c0.66,0 1.19,-0.53 1.19,-1.19c0,-0.66 -0.53,-1.19 -1.19,-1.19l-159.29,0c-0.66,0 -1.19,0.53 -1.19,1.19z" fill="#3f3d56" id="svg_18"/>
  <path d="m525.08,528l-287,0l0,-359.5c0,-36.7 13.84,-71.62 38.98,-98.33c27.41,-29.13 64.53,-45.17 104.52,-45.17c79.13,0 143.5,64.37 143.5,143.5l0,359.5zm-285,-2l283,0l0,-357.5c0,-78.02 -63.48,-141.5 -141.5,-141.5c-39.43,0 -76.03,15.82 -103.06,44.55c-24.79,26.33 -38.44,60.77 -38.44,96.95l0,357.5z" fill="#3f3d56" id="svg_19"/>
  <path d="m381.58,175.65c-0.26,0 -0.52,-0.1 -0.71,-0.29l-103.79,-103.79c-0.39,-0.39 -0.39,-1.03 0,-1.42s1.02,-0.39 1.41,0l102.09,102.09l0,-146.24c0,-0.55 0.45,-1 1,-1s1,0.45 1,1l0,148.65c0,0.41 -0.24,0.77 -0.62,0.93c-0.12,0.05 -0.25,0.07 -0.38,0.07z" fill="#3f3d56" id="svg_20"/>
  <rect fill="#3f3d56" height="2" id="svg_21" transform="rotate(-44.446 55.3298 357)" width="146.74" x="415.93" y="454.29"/>
  <rect fill="#3f3d56" height="2" id="svg_22" width="285" x="239.08" y="174"/>
  <path d="m590.19,579.13c-2.36,0 -4.69,-0.81 -6.61,-2.37l-60.13,-48.98l1.26,-1.56l60.13,48.99c2.56,2.08 6.01,2.5 8.99,1.09c2.99,-1.4 4.85,-4.33 4.88,-7.63l2.76,-433.83c0.02,-3.16 -1.62,-5.95 -4.38,-7.49c-2.75,-1.53 -5.99,-1.43 -8.65,0.25c-38.42,24.3 -62.16,39.78 -63.51,41.41c0,0 0.08,-0.09 0.12,-0.27l-1.94,-0.48c0.18,-0.71 0.51,-2.04 64.26,-42.35c3.29,-2.08 7.29,-2.19 10.69,-0.3c3.41,1.89 5.43,5.34 5.41,9.24l-2.76,433.83c-0.03,4.08 -2.34,7.69 -6.03,9.43c-1.44,0.68 -2.97,1.02 -4.49,1.02z" fill="#3f3d56" id="svg_23"/>
  <rect fill="#3f3d56" height="79.78" id="svg_24" transform="rotate(-73.0634 -6.32137 862.716)" width="2" x="554.92" y="1245.95"/>
  <rect fill="#3f3d56" height="76.43" id="svg_25" transform="rotate(-86.9998 207.259 895.406)" width="2" x="768.5" y="1183.2"/>
  <rect fill="#3f3d56" height="2" id="svg_26" transform="rotate(-13.9277 -37.8761 167.145)" width="80.06" x="485.02" y="392.26"/>
  <path d="m171.97,579.13c-1.52,0 -3.05,-0.34 -4.5,-1.02c-3.68,-1.74 -5.99,-5.35 -6.02,-9.43l-2.76,-433.83c-0.03,-3.9 2,-7.35 5.4,-9.24c3.41,-1.9 7.41,-1.78 10.7,0.3c63.75,40.31 64.08,41.64 64.26,42.35l-1.94,0.48c0.04,0.18 0.12,0.27 0.12,0.27c-1.35,-1.63 -25.09,-17.11 -63.51,-41.41c-2.66,-1.68 -5.9,-1.78 -8.66,-0.25c-2.76,1.54 -4.39,4.33 -4.37,7.49l2.76,433.83c0.02,3.3 1.89,6.23 4.88,7.63c2.98,1.41 6.43,0.99 8.99,-1.09l60.13,-48.99l1.26,1.56l-60.13,48.98c-1.92,1.56 -4.25,2.37 -6.61,2.37z" fill="#3f3d56" id="svg_27"/>
  <rect fill="#3f3d56" height="2" id="svg_28" transform="rotate(-16.9403 -114.613 101.611)" width="79.78" x="45.42" y="523.73"/>
  <rect fill="#3f3d56" height="2" id="svg_29" transform="rotate(-2.99368 -16.7528 35.8858)" width="76.43" x="144.96" y="360.89"/>
  <rect fill="#3f3d56" height="80.06" id="svg_30" transform="rotate(-76.0708 -68.2036 390.053)" width="2" x="130.02" y="576.14"/>
  <path d="m381.58,175.65c-0.11,0 -0.22,-0.02 -0.33,-0.05l-135.5,-46.65c-0.52,-0.18 -0.8,-0.75 -0.62,-1.28c0.18,-0.52 0.75,-0.8 1.27,-0.62l135.17,46.54l135.49,-49.26c0.52,-0.19 1.09,0.08 1.28,0.6c0.19,0.52 -0.08,1.09 -0.6,1.28l-135.82,49.38c-0.11,0.04 -0.23,0.06 -0.34,0.06z" fill="#3f3d56" id="svg_62"/>
  <ellipse cx="176.83" cy="377" fill="#3f3d56" id="svg_9" rx="8" ry="14"/>
 </g>
</svg>