<svg xmlns="http://www.w3.org/2000/svg" width="610" height="450"><defs><marker orient="auto" refY="0" refX="0" id="a" overflow="visible"><path d="M-4 0l-2 2 7-2-7-2 2 2z" fill="#009191" fill-opacity=".784" fill-rule="evenodd" stroke="#009191" stroke-width=".4pt" stroke-opacity=".784"/></marker></defs><g stroke="null"><path stroke="#4d4d4d" stroke-width="1.5" fill="none" d="M389.348 105.724h96v40h-96z"/><text stroke-linejoin="null" stroke-linecap="null" x="121.193" y="83.695" font-size="20" style="-inkscape-font-specification:'Liberation Serif'" font-weight="400" font-family="Liberation Serif" text-anchor="middle" fill="#4d4d4d" stroke="#000" stroke-width="0" transform="translate(8.848 98.391)">Client</text><path stroke="#4d4d4d" stroke-width="1.5" fill="none" d="M82.368 155.245h96v40h-96z"/><text stroke-linejoin="null" stroke-linecap="null" x="428.646" y="34.174" font-size="20" style="-inkscape-font-specification:'Liberation Serif'" font-weight="400" font-family="Liberation Serif" text-anchor="middle" fill="#4d4d4d" stroke="#000" stroke-width="0" transform="translate(8.848 98.391)">MDS</text><path stroke="#4d4d4d" stroke-width="1.5" fill="none" d="M389.348 181.724h96v40h-96z"/><text stroke-linejoin="null" stroke-linecap="null" x="428.69" y="109.857" font-size="20" style="-inkscape-font-specification:'Liberation Serif'" font-weight="400" font-family="Liberation Serif" text-anchor="middle" fill="#4d4d4d" stroke="#000" stroke-width="0" transform="translate(8.848 98.391)">OSS 1</text><path stroke="#4d4d4d" stroke-width="1.5" fill="none" d="M389.348 267.724h96v40h-96z"/><text stroke-linejoin="null" stroke-linecap="null" x="428.671" y="195.857" font-size="20" style="-inkscape-font-specification:'Liberation Serif'" font-weight="400" font-family="Liberation Serif" text-anchor="middle" fill="#4d4d4d" stroke="#000" stroke-width="0" transform="translate(8.848 98.391)">OSS 2</text><path stroke-linejoin="null" stroke-linecap="null" fill="none" stroke="#4d4d4d" stroke-width="1.494" d="M218.994 90.967h128.714"/><path stroke-linejoin="null" stroke-linecap="null" fill="none" stroke="#4d4d4d" stroke-width="1.511" d="M347.685 90.276v341.041"/><path stroke-linejoin="null" stroke-linecap="null" fill="none" stroke="#4d4d4d" stroke-width="1.579" d="M219.828 90.296V240.84"/><path stroke-linejoin="null" stroke-linecap="null" fill="none" stroke="#4d4d4d" stroke-width="1.5" d="M177.991 174.796h42.431"/><path stroke-linejoin="null" stroke-linecap="null" d="M524.916 122.586c0 3.835-11.963 6.944-26.72 6.944m26.72-6.944h0c0 3.835-11.963 6.944-26.72 6.944-14.756 0-26.719-3.109-26.719-6.944m0 0h0c0-3.835 11.963-6.944 26.72-6.944 14.756 0 26.719 3.109 26.719 6.944v27.775c0 3.835-11.963 6.944-26.72 6.944-14.756 0-26.719-3.109-26.719-6.944v-27.775z" fill="#fff" stroke="#000"/><text stroke-linejoin="null" stroke-linecap="null" x="395.776" y="-29.435" font-size="16.25" style="line-height:125%;-inkscape-font-specification:'Liberation Serif';text-align:center" font-weight="400" font-family="Liberation Serif" text-anchor="middle" fill="#666" stroke="#000" stroke-width="0" transform="translate(8.848 98.391)"><tspan style="-inkscape-font-specification:'Liberation Serif'">/dev/xvdb</tspan></text><text stroke-linejoin="null" stroke-linecap="null" x="554.138" y="113.988" font-size="16.25" style="line-height:125%;-inkscape-font-specification:'Liberation Serif';text-align:center" font-weight="400" font-family="Liberation Serif" text-anchor="middle" fill="#666" stroke="#000" stroke-width="0" transform="translate(8.848 98.391)"><tspan style="-inkscape-font-specification:'Liberation Serif'">/dev/xvdb</tspan></text><path stroke="#4d4d4d" stroke-width="1.5" fill="none" d="M389.348 353.06h96v40h-96z"/><text stroke-linejoin="null" stroke-linecap="null" x="428.51" y="281.192" font-size="20" style="-inkscape-font-specification:'Liberation Serif'" font-weight="400" font-family="Liberation Serif" text-anchor="middle" fill="#4d4d4d" stroke="#000" stroke-width="0" transform="translate(8.848 98.391)"><tspan style="-inkscape-font-specification:'Liberation Serif'">OSS 3</tspan></text><path stroke-linejoin="null" stroke-linecap="null" d="M523.472 220.278c0 3.835-11.963 6.944-26.72 6.944m26.72-6.944h0c0 3.835-11.963 6.944-26.72 6.944-14.756 0-26.719-3.109-26.719-6.944m0 0h0c0-3.835 11.963-6.944 26.72-6.944 14.756 0 26.719 3.11 26.719 6.944v27.776c0 3.835-11.963 6.944-26.72 6.944-14.756 0-26.719-3.109-26.719-6.944v-27.776z" fill="#fff" stroke="#000"/><path stroke-linejoin="null" stroke-linecap="null" d="M523.472 192.336c0 3.835-11.963 6.944-26.72 6.944m26.72-6.944h0c0 3.835-11.963 6.944-26.72 6.944-14.756 0-26.719-3.109-26.719-6.944m0 0h0c0-3.835 11.963-6.944 26.72-6.944 14.756 0 26.719 3.11 26.719 6.944v27.776c0 3.835-11.963 6.944-26.72 6.944-14.756 0-26.719-3.109-26.719-6.944v-27.776z" fill="#fff" stroke="#000"/><text stroke-linejoin="null" stroke-linecap="null" x="488.047" y="119.094" font-size="15" style="line-height:125%;-inkscape-font-specification:'Liberation Serif';text-align:center" font-weight="400" font-family="Liberation Serif" text-anchor="middle" fill="#4d4d4d" stroke="#000" stroke-width="0" transform="translate(8.848 98.391)">OST 1</text><path stroke-linejoin="null" stroke-linecap="null" fill="none" stroke="#4d4d4d" stroke-width="1.521" d="M347.383 201.724h42.105"/><path stroke-linejoin="null" stroke-linecap="null" fill="none" stroke="#4d4d4d" stroke-width="1.5" d="M347.383 287.724h41.43"/><path stroke-linejoin="null" stroke-linecap="null" fill="none" stroke="#4d4d4d" stroke-width="1.488" d="M347.383 373.06h42.259"/><text font-size="20" y="175.496" x="224" stroke-linecap="null" stroke-linejoin="null" style="-inkscape-font-specification:'Liberation Serif'" font-weight="400" font-family="Liberation Serif" text-anchor="middle" fill="#009191" fill-opacity=".784" stroke="#050404" stroke-width="0" transform="translate(8.848 98.391)">Lustre File System</text><text font-size="20" y="82.778" x="32.846" stroke-linecap="null" stroke-linejoin="null" style="-inkscape-font-specification:'Liberation Serif'" font-weight="400" font-family="Liberation Serif" text-anchor="middle" fill="#4d4d4d" stroke="#000" stroke-width="0" transform="translate(8.848 98.391)">/lustrefs</text><path stroke-linejoin="null" stroke-linecap="null" fill="none" stroke="#009191" stroke-width="2" stroke-opacity=".529" d="M312.044 269.107h18.832"/><path stroke-linejoin="null" stroke-linecap="null" fill="none" stroke="#4d4d4d" stroke-width="1.515" d="M347.383 125.724h41.769"/><path stroke-linejoin="null" stroke-linecap="null" fill="none" stroke="#009191" stroke-width="2.11" stroke-opacity=".529" d="M329.848 107.442v278.373"/><path stroke-linejoin="null" stroke-linecap="null" fill="none" stroke="#009191" stroke-width="2" stroke-opacity=".529" d="M328.852 136.358h78.1"/><text font-size="20" y="189.48" x="88.977" stroke-linecap="null" stroke-linejoin="null" style="-inkscape-font-specification:'Liberation Serif'" font-weight="400" font-family="Liberation Serif" text-anchor="middle" fill="#009191" fill-opacity=".784" stroke="#000" stroke-width="0" transform="translate(8.848 98.391)">mount</text><path stroke-linejoin="null" stroke-linecap="null" fill="none" stroke="#009191" stroke-width="2" stroke-opacity=".529" d="M329.617 214.166h78.1m-78.1 86h78.1m-78.933 84.5h78.099"/><path d="M139.784 169.915H33.827V99.858" fill="none" stroke="#009191" stroke-width="2" stroke-dasharray="2,4" stroke-opacity=".784" marker-end="url(#a)" transform="translate(8.848 98.391)"/><text stroke-linejoin="null" stroke-linecap="null" x="555.088" y="147.93" font-size="16.25" style="line-height:125%;-inkscape-font-specification:'Liberation Serif';text-align:center" font-weight="400" font-family="Liberation Serif" text-anchor="middle" fill="#666" stroke="#000" stroke-width="0" transform="translate(8.848 98.391)">/dev/xvdc</text><text stroke-linejoin="null" stroke-linecap="null" x="488.011" y="147.036" font-size="15" style="line-height:125%;-inkscape-font-specification:'Liberation Serif';text-align:center" font-weight="400" font-family="Liberation Serif" text-anchor="middle" fill="#4d4d4d" stroke="#000" stroke-width="0" transform="translate(8.848 98.391)">OST 2</text><text stroke-linejoin="null" stroke-linecap="null" x="554.471" y="200.292" font-size="16.25" style="line-height:125%;-inkscape-font-specification:'Liberation Serif';text-align:center" font-weight="400" font-family="Liberation Serif" text-anchor="middle" fill="#666" stroke="#000" stroke-width="0" transform="translate(8.848 98.391)"><tspan style="-inkscape-font-specification:'Liberation Serif'">/dev/xvdb</tspan></text><path stroke-linejoin="null" stroke-linecap="null" d="M523.805 306.583c0 3.835-11.963 6.944-26.72 6.944m26.72-6.944h0c0 3.835-11.963 6.944-26.72 6.944-14.756 0-26.719-3.11-26.719-6.944m0 0h0c0-3.835 11.963-6.944 26.72-6.944 14.756 0 26.72 3.109 26.72 6.944v27.776c0 3.835-11.964 6.944-26.72 6.944-14.757 0-26.72-3.11-26.72-6.944v-27.776z" fill="#fff" stroke="#000"/><path stroke-linejoin="null" stroke-linecap="null" d="M523.805 278.641c0 3.835-11.963 6.944-26.72 6.944m26.72-6.944h0c0 3.835-11.963 6.944-26.72 6.944-14.756 0-26.719-3.11-26.719-6.944m0 0h0c0-3.835 11.963-6.944 26.72-6.944 14.756 0 26.72 3.109 26.72 6.944v27.776c0 3.835-11.964 6.944-26.72 6.944-14.757 0-26.72-3.11-26.72-6.944v-27.776z" fill="#fff" stroke="#000"/><text stroke-linejoin="null" stroke-linecap="null" x="488.223" y="205.398" font-size="15" style="line-height:125%;-inkscape-font-specification:'Liberation Serif';text-align:center" font-weight="400" font-family="Liberation Serif" text-anchor="middle" fill="#4d4d4d" stroke="#000" stroke-width="0" transform="translate(8.848 98.391)">OST 3</text><text stroke-linejoin="null" stroke-linecap="null" x="555.421" y="234.234" font-size="16.25" style="line-height:125%;-inkscape-font-specification:'Liberation Serif';text-align:center" font-weight="400" font-family="Liberation Serif" text-anchor="middle" fill="#666" stroke="#000" stroke-width="0" transform="translate(8.848 98.391)">/dev/xvdc</text><text stroke-linejoin="null" stroke-linecap="null" x="488.047" y="233.34" font-size="15" style="line-height:125%;-inkscape-font-specification:'Liberation Serif';text-align:center" font-weight="400" font-family="Liberation Serif" text-anchor="middle" fill="#4d4d4d" stroke="#000" stroke-width="0" transform="translate(8.848 98.391)">OST 4</text><text stroke-linejoin="null" stroke-linecap="null" x="553.638" y="286.126" font-size="16.25" style="line-height:125%;-inkscape-font-specification:'Liberation Serif';text-align:center" font-weight="400" font-family="Liberation Serif" text-anchor="middle" fill="#666" stroke="#000" stroke-width="0" transform="translate(8.848 98.391)"><tspan style="-inkscape-font-specification:'Liberation Serif'">/dev/xvdb</tspan></text><path stroke-linejoin="null" stroke-linecap="null" d="M522.972 392.416c0 3.835-11.963 6.944-26.72 6.944m26.72-6.944h0c0 3.835-11.963 6.944-26.72 6.944-14.756 0-26.719-3.109-26.719-6.944m0 0h0c0-3.835 11.963-6.944 26.72-6.944 14.756 0 26.719 3.109 26.719 6.944v27.776c0 3.835-11.963 6.944-26.72 6.944-14.756 0-26.719-3.109-26.719-6.944v-27.776z" fill="#fff" stroke="#000"/><path stroke-linejoin="null" stroke-linecap="null" d="M522.972 364.474c0 3.835-11.963 6.944-26.72 6.944m26.72-6.944h0c0 3.835-11.963 6.944-26.72 6.944-14.756 0-26.719-3.109-26.719-6.944m0 0h0c0-3.835 11.963-6.944 26.72-6.944 14.756 0 26.719 3.109 26.719 6.944v27.776c0 3.835-11.963 6.944-26.72 6.944-14.756 0-26.719-3.109-26.719-6.944v-27.776z" fill="#fff" stroke="#000"/><text stroke-linejoin="null" stroke-linecap="null" x="487.39" y="291.232" font-size="15" style="line-height:125%;-inkscape-font-specification:'Liberation Serif';text-align:center" font-weight="400" font-family="Liberation Serif" text-anchor="middle" fill="#4d4d4d" stroke="#000" stroke-width="0" transform="translate(8.848 98.391)">OST 5</text><text stroke-linejoin="null" stroke-linecap="null" x="554.588" y="320.068" font-size="16.25" style="line-height:125%;-inkscape-font-specification:'Liberation Serif';text-align:center" font-weight="400" font-family="Liberation Serif" text-anchor="middle" fill="#666" stroke="#000" stroke-width="0" transform="translate(8.848 98.391)">/dev/xvdc</text><text stroke-linejoin="null" stroke-linecap="null" x="487.32" y="319.174" font-size="15" style="line-height:125%;-inkscape-font-specification:'Liberation Serif';text-align:center" font-weight="400" font-family="Liberation Serif" text-anchor="middle" fill="#4d4d4d" stroke="#000" stroke-width="0" transform="translate(8.848 98.391)">OST 6</text><text stroke-linejoin="null" stroke-linecap="null" x="554.925" y="48.139" font-size="16.25" style="line-height:125%;-inkscape-font-specification:'Liberation Serif';text-align:center" font-weight="400" font-family="Liberation Serif" text-anchor="middle" fill="#666" stroke="#000" stroke-width="0" transform="translate(8.848 98.391)"><tspan style="-inkscape-font-specification:'Liberation Serif'">/dev/xvdb</tspan></text><text stroke-linejoin="null" stroke-linecap="null" x="489.26" y="47.866" font-size="15" style="line-height:125%;-inkscape-font-specification:'Liberation Serif';text-align:center" font-weight="400" font-family="Liberation Serif" text-anchor="middle" fill="#4d4d4d" stroke="#000" stroke-width="0" transform="translate(8.848 98.391)">MDT</text><path stroke="#4d4d4d" stroke-width="1.5" fill="none" d="M235.015 27.986h96v40h-96z"/><text stroke-linejoin="null" stroke-linecap="null" x="274.504" y="-43.564" font-size="20" style="-inkscape-font-specification:'Liberation Serif'" font-weight="400" font-family="Liberation Serif" text-anchor="middle" fill="#4d4d4d" stroke="#000" stroke-width="0" transform="translate(8.848 98.391)">MGS</text><path d="M283.015 67.449v22.82" fill="none" stroke="#4d4d4d" stroke-width="1.5"/><path stroke-linejoin="null" stroke-linecap="null" d="M364.975 44.836c0 3.836-11.963 6.944-26.72 6.944m26.72-6.944h0c0 3.836-11.963 6.944-26.72 6.944-14.756 0-26.72-3.108-26.72-6.944m0 0h0c0-3.835 11.964-6.944 26.72-6.944 14.757 0 26.72 3.11 26.72 6.944v27.777c0 3.835-11.963 6.944-26.72 6.944-14.756 0-26.72-3.11-26.72-6.944V44.836z" fill="#fff" stroke="#000"/><text stroke-linejoin="null" stroke-linecap="null" x="329.319" y="-29.709" font-size="15" style="line-height:125%;-inkscape-font-specification:'Liberation Serif';text-align:center" font-weight="400" font-family="Liberation Serif" text-anchor="middle" fill="#4d4d4d" stroke="#000" stroke-width="0" transform="translate(8.848 98.391)">MGT</text><path d="M295.306 60.082c0 47.005-.68 47.65-.68 47.65" fill="none" stroke="#009191" stroke-width="1.971" stroke-opacity=".529"/><path stroke-linejoin="null" stroke-linecap="null" fill="none" stroke="#009191" stroke-width="2" stroke-opacity=".529" d="M293.836 107.047h37.16"/></g></svg>